# xmcd
#
# Track frame offsets: 
#        150
#        7945
#        27709
#        51746
#        67705
#        82367
#        94958
#        108397
#        131672
#        146411
#        164117
#        176514
#        189761
#        207649
#        234952
#        253296
#        272823
#
# Disc length: 3853 seconds
#
# Revision: 0
# Processed by: cddbd v1.5.2PL0 Copyright (c) Steve Scherf et al.
# Submitted via: ExactAudioCopy v1.0b3
#
DISCID=000f0b11
DTITLE=Willis Earl Beal - Acousmatic Sorcery [FOUND Limited Edition]
DYEAR=2011
DGENRE=Blues
TTITLE0=Angel Chorus
TTITLE1=Sambo Joe from the Rainbow
TTITLE2=Cosmic Queries
TTITLE3=Ghost Robot
TTITLE4=Swing On Low
TTITLE5=The Axeman
TTITLE6=Take Me Away
TTITLE7=Letting Go
TTITLE8=Evening’s Kiss
TTITLE9=Blue Escape
TTITLE10=Reside out of Time
TTITLE11=Close to Me
TTITLE12=Monotony
TTITLE13=The Masquerade
TTITLE14=My Resignation
TTITLE15=Away My Silent Lover
TTITLE16=White Noise
EXTD=
EXTT0=
EXTT1=
EXTT2=
EXTT3=
EXTT4=
EXTT5=
EXTT6=
EXTT7=
EXTT8=
EXTT9=
EXTT10=
EXTT11=
EXTT12=
EXTT13=
EXTT14=
EXTT15=
EXTT16=
PLAYORDER=
